<svg width="85" height="85" viewBox="0 0 85 85" fill="none" xmlns="http://www.w3.org/2000/svg">
<path d="M84.0052 66.5769L83.8336 0.44298L17.6997 0.271381C17.0107 0.178092 16.3097 0.233935 15.6441 0.435123C14.9786 0.636313 14.364 0.978156 13.842 1.43751C13.3201 1.89686 12.9029 2.46299 12.6188 3.09758C12.3346 3.73217 12.1902 4.42041 12.1951 5.11569C12.2001 5.81098 12.3544 6.49708 12.6476 7.12755C12.9407 7.75802 13.366 8.31813 13.8944 8.76998C14.4229 9.22183 15.0423 9.55485 15.7106 9.74651C16.379 9.93817 17.0807 9.984 17.7684 9.88088L67.3259 10.0868L1.67246 75.7402C0.762246 76.6504 0.25089 77.8849 0.250892 79.1722C0.25089 80.4594 0.762244 81.6939 1.67246 82.6041C2.58267 83.5143 3.81718 84.0257 5.10442 84.0257C6.39166 84.0257 7.62617 83.5143 8.53638 82.6041L74.1898 16.9507L74.3957 66.5082C74.4003 67.7962 74.9163 69.0296 75.8302 69.9371C76.7441 70.8446 77.9811 71.3519 79.2691 71.3473C80.557 71.3427 81.7904 70.8267 82.6979 69.9128C83.6054 68.9989 84.1127 67.7619 84.1082 66.4739L84.0052 66.5769Z" fill="black"/>
</svg>
