<svg width="121" height="154" viewBox="0 0 121 154" fill="none" xmlns="http://www.w3.org/2000/svg">
<path d="M3.15778 43.7984C3.73471 42.0283 4.38835 40.2865 5.11678 38.5777L38.9221 5.0715C40.6462 4.34951 42.4036 3.70165 44.1895 3.12983L3.15778 43.7984Z" fill="url(#paint0_linear_214_37)"/>
<path d="M0.982001 52.5129C1.22771 51.1193 1.5188 49.7373 1.85443 48.3691L48.8009 1.83802C50.1814 1.50535 51.5757 1.21684 52.9818 0.97331L0.982001 52.5129Z" fill="url(#paint1_linear_214_37)"/>
<path d="M0.112964 59.9327C0.183835 58.7306 0.287878 57.5342 0.424602 56.3447L56.8478 0.420844C58.0479 0.285327 59.255 0.18221 60.4678 0.111964L0.112964 59.9327Z" fill="url(#paint2_linear_214_37)"/>
<path d="M0.0585762 66.5444C0.0359067 66.008 0.0197872 65.4709 0.0102713 64.9332C0.000749179 64.3952 -0.00214091 63.8581 0.00155374 63.3219L63.8872 0.00153946C64.4283 -0.0021225 64.9702 0.000745146 65.5129 0.0101799C66.0554 0.0196115 66.5974 0.0355853 67.1386 0.0580542L0.0585762 66.5444Z" fill="url(#paint3_linear_214_37)"/>
<path d="M0.591523 72.5748C0.459428 71.5944 0.349166 70.6104 0.261028 69.6233L70.2449 0.258711C71.2408 0.346069 72.2337 0.455365 73.2228 0.586291L0.591523 72.5748Z" fill="url(#paint4_linear_214_37)"/>
<path d="M1.58541 78.148C1.38353 77.2405 1.2005 76.3286 1.03657 75.4128L76.0862 1.02739C77.0101 1.18987 77.9301 1.37128 78.8457 1.57137L1.58541 78.148Z" fill="url(#paint5_linear_214_37)"/>
<path d="M2.96114 83.3422C2.70043 82.4958 2.4564 81.6444 2.22926 80.7885L81.5099 2.20952C82.3734 2.43465 83.2324 2.67652 84.0864 2.93493L2.96114 83.3422Z" fill="url(#paint6_linear_214_37)"/>
<path d="M4.66632 88.2107C4.35418 87.4175 4.05707 86.6187 3.7752 85.8149L86.5811 3.74179C87.3921 4.02117 88.198 4.31564 88.9983 4.62502L4.66632 88.2107Z" fill="url(#paint7_linear_214_37)"/>
<path d="M6.66414 92.7888C6.30577 92.0431 5.96115 91.2915 5.63046 90.5342L91.3426 5.58063C92.1066 5.9084 92.8649 6.24996 93.6173 6.60516L6.66414 92.7888Z" fill="url(#paint8_linear_214_37)"/>
<path d="M8.92878 97.1022C8.52786 96.4001 8.13967 95.6917 7.76436 94.9772L95.8252 7.69565C96.5461 8.06763 97.2609 8.45239 97.9692 8.84976L8.92878 97.1022Z" fill="url(#paint9_linear_214_37)"/>
<path d="M11.4421 101.17C11.0012 100.508 10.5723 99.8403 10.1553 99.1658L100.051 10.0655C100.732 10.4787 101.406 10.9039 102.073 11.3408L11.4421 101.17Z" fill="url(#paint10_linear_214_37)"/>
<path d="M14.1909 105.003C13.7118 104.381 13.244 103.751 12.7876 103.115L104.035 12.6744C104.678 13.1268 105.313 13.5905 105.941 14.0653L14.1909 105.003Z" fill="url(#paint11_linear_214_37)"/>
<path d="M17.1671 108.612C16.651 108.027 16.1456 107.435 15.651 106.835L107.789 15.5125C108.394 16.0027 108.992 16.5037 109.581 17.0151L17.1671 108.612Z" fill="url(#paint12_linear_214_37)"/>
<path d="M20.3652 112C19.8128 111.452 19.2705 110.897 18.7386 110.333L111.318 18.5727C111.887 19.1 112.448 19.6375 113 20.185L20.3652 112Z" fill="url(#paint13_linear_214_37)"/>
<path d="M32.4239 8.23307L8.30658 32.137C11.1163 27.1935 14.6029 22.6173 18.7111 18.5455C22.8192 14.4737 27.4363 11.0179 32.4239 8.23307Z" fill="url(#paint14_linear_214_37)"/>
<path d="M117.87 110.202C117.298 111.972 116.65 113.714 115.929 115.422L82.4223 148.929C80.7135 149.65 78.9717 150.298 77.2016 150.87L117.87 110.202Z" fill="url(#paint15_linear_214_37)"/>
<path d="M120.027 101.487C119.783 102.881 119.495 104.263 119.162 105.631L72.6309 152.162C71.2627 152.495 69.8807 152.783 68.4871 153.027L120.027 101.487Z" fill="url(#paint16_linear_214_37)"/>
<path d="M120.888 94.0673C120.818 95.2694 120.715 96.4658 120.579 97.6553L64.6553 153.579C63.4658 153.715 62.2694 153.818 61.0673 153.888L120.888 94.0673Z" fill="url(#paint17_linear_214_37)"/>
<path d="M120.942 87.4555C120.964 87.992 120.98 88.5291 120.99 89.0668C120.999 89.6048 121.002 90.1419 120.998 90.6781L57.6781 153.998C57.1419 154.002 56.6048 153.999 56.0668 153.99C55.5291 153.98 54.992 153.964 54.4555 153.942L120.942 87.4555Z" fill="url(#paint18_linear_214_37)"/>
<path d="M120.414 81.4252C120.545 82.4056 120.654 83.3896 120.741 84.3767L51.3767 153.741C50.3896 153.654 49.4056 153.545 48.4252 153.414L120.414 81.4252Z" fill="url(#paint19_linear_214_37)"/>
<path d="M119.429 75.852C119.629 76.7595 119.81 77.6714 119.973 78.5872L45.5872 152.973C44.6714 152.81 43.7595 152.629 42.852 152.429L119.429 75.852Z" fill="url(#paint20_linear_214_37)"/>
<path d="M118.065 70.6578C118.323 71.5042 118.565 72.3556 118.79 73.2115L40.2115 151.79C39.3556 151.565 38.5042 151.323 37.6578 151.065L118.065 70.6578Z" fill="url(#paint21_linear_214_37)"/>
<path d="M116.375 65.7893C116.684 66.5825 116.979 67.3813 117.258 68.1851L35.1851 150.258C34.3813 149.979 33.5825 149.684 32.7893 149.375L116.375 65.7893Z" fill="url(#paint22_linear_214_37)"/>
<path d="M114.395 61.2112C114.75 61.9569 115.092 62.7086 115.419 63.4658L30.4658 148.419C29.7086 148.092 28.9569 147.75 28.2112 147.395L114.395 61.2112Z" fill="url(#paint23_linear_214_37)"/>
<path d="M112.15 56.8978C112.548 57.5999 112.932 58.3083 113.304 59.0228L26.0228 146.304C25.3083 145.932 24.5999 145.548 23.8978 145.15L112.15 56.8978Z" fill="url(#paint24_linear_214_37)"/>
<path d="M109.659 52.8304C110.096 53.4917 110.521 54.1597 110.935 54.8342L21.8342 143.935C21.1597 143.521 20.4917 143.096 19.8304 142.659L109.659 52.8304Z" fill="url(#paint25_linear_214_37)"/>
<path d="M106.935 48.997C107.41 49.6193 107.873 50.2488 108.326 50.8852L17.8853 141.326C17.2488 140.873 16.6193 140.41 15.997 139.935L106.935 48.997Z" fill="url(#paint26_linear_214_37)"/>
<path d="M103.985 45.3883C104.496 45.9729 104.997 46.5652 105.487 47.1648L14.1648 138.487C13.5652 137.997 12.9729 137.496 12.3883 136.985L103.985 45.3883Z" fill="url(#paint27_linear_214_37)"/>
<path d="M10.6668 135.427C10.1033 134.9 9.54756 134.363 9 133.815L100.815 42C101.363 42.5476 101.9 43.1033 102.427 43.6668L10.6668 135.427Z" fill="url(#paint28_linear_214_37)"/>
<path d="M88.863 145.767L112.767 121.863C109.982 126.806 106.526 131.383 102.455 135.455C98.3827 139.526 93.8065 142.982 88.863 145.767Z" fill="url(#paint29_linear_214_37)"/>
<defs>
<linearGradient id="paint0_linear_214_37" x1="18.7111" y1="18.5457" x2="70.5208" y2="69.8028" gradientUnits="userSpaceOnUse">
<stop stop-color="white" stop-opacity="0.9"/>
<stop offset="1" stop-color="white" stop-opacity="0"/>
</linearGradient>
<linearGradient id="paint1_linear_214_37" x1="18.7111" y1="18.5457" x2="70.5208" y2="69.8028" gradientUnits="userSpaceOnUse">
<stop stop-color="white" stop-opacity="0.9"/>
<stop offset="1" stop-color="white" stop-opacity="0"/>
</linearGradient>
<linearGradient id="paint2_linear_214_37" x1="18.7111" y1="18.5457" x2="70.5208" y2="69.8028" gradientUnits="userSpaceOnUse">
<stop stop-color="white" stop-opacity="0.9"/>
<stop offset="1" stop-color="white" stop-opacity="0"/>
</linearGradient>
<linearGradient id="paint3_linear_214_37" x1="18.7111" y1="18.5457" x2="70.5208" y2="69.8028" gradientUnits="userSpaceOnUse">
<stop stop-color="white" stop-opacity="0.9"/>
<stop offset="1" stop-color="white" stop-opacity="0"/>
</linearGradient>
<linearGradient id="paint4_linear_214_37" x1="18.7111" y1="18.5457" x2="70.5208" y2="69.8028" gradientUnits="userSpaceOnUse">
<stop stop-color="white" stop-opacity="0.9"/>
<stop offset="1" stop-color="white" stop-opacity="0"/>
</linearGradient>
<linearGradient id="paint5_linear_214_37" x1="18.7111" y1="18.5457" x2="70.5208" y2="69.8028" gradientUnits="userSpaceOnUse">
<stop stop-color="white" stop-opacity="0.9"/>
<stop offset="1" stop-color="white" stop-opacity="0"/>
</linearGradient>
<linearGradient id="paint6_linear_214_37" x1="18.7111" y1="18.5457" x2="70.5208" y2="69.8028" gradientUnits="userSpaceOnUse">
<stop stop-color="white" stop-opacity="0.9"/>
<stop offset="1" stop-color="white" stop-opacity="0"/>
</linearGradient>
<linearGradient id="paint7_linear_214_37" x1="18.7111" y1="18.5457" x2="70.5208" y2="69.8028" gradientUnits="userSpaceOnUse">
<stop stop-color="white" stop-opacity="0.9"/>
<stop offset="1" stop-color="white" stop-opacity="0"/>
</linearGradient>
<linearGradient id="paint8_linear_214_37" x1="18.7111" y1="18.5457" x2="70.5208" y2="69.8028" gradientUnits="userSpaceOnUse">
<stop stop-color="white" stop-opacity="0.9"/>
<stop offset="1" stop-color="white" stop-opacity="0"/>
</linearGradient>
<linearGradient id="paint9_linear_214_37" x1="18.7111" y1="18.5457" x2="70.5208" y2="69.8028" gradientUnits="userSpaceOnUse">
<stop stop-color="white" stop-opacity="0.9"/>
<stop offset="1" stop-color="white" stop-opacity="0"/>
</linearGradient>
<linearGradient id="paint10_linear_214_37" x1="18.7111" y1="18.5457" x2="70.5208" y2="69.8028" gradientUnits="userSpaceOnUse">
<stop stop-color="white" stop-opacity="0.9"/>
<stop offset="1" stop-color="white" stop-opacity="0"/>
</linearGradient>
<linearGradient id="paint11_linear_214_37" x1="18.7111" y1="18.5457" x2="70.5208" y2="69.8028" gradientUnits="userSpaceOnUse">
<stop stop-color="white" stop-opacity="0.9"/>
<stop offset="1" stop-color="white" stop-opacity="0"/>
</linearGradient>
<linearGradient id="paint12_linear_214_37" x1="18.7111" y1="18.5457" x2="70.5208" y2="69.8028" gradientUnits="userSpaceOnUse">
<stop stop-color="white" stop-opacity="0.9"/>
<stop offset="1" stop-color="white" stop-opacity="0"/>
</linearGradient>
<linearGradient id="paint13_linear_214_37" x1="18.7111" y1="18.5457" x2="70.5208" y2="69.8028" gradientUnits="userSpaceOnUse">
<stop stop-color="white" stop-opacity="0.9"/>
<stop offset="1" stop-color="white" stop-opacity="0"/>
</linearGradient>
<linearGradient id="paint14_linear_214_37" x1="18.7111" y1="18.5457" x2="70.5208" y2="69.8028" gradientUnits="userSpaceOnUse">
<stop stop-color="white" stop-opacity="0.9"/>
<stop offset="1" stop-color="white" stop-opacity="0"/>
</linearGradient>
<linearGradient id="paint15_linear_214_37" x1="102.455" y1="135.455" x2="50.652" y2="84.6578" gradientUnits="userSpaceOnUse">
<stop stop-color="white" stop-opacity="0.9"/>
<stop offset="1" stop-color="white" stop-opacity="0"/>
</linearGradient>
<linearGradient id="paint16_linear_214_37" x1="102.455" y1="135.455" x2="50.652" y2="84.6578" gradientUnits="userSpaceOnUse">
<stop stop-color="white" stop-opacity="0.9"/>
<stop offset="1" stop-color="white" stop-opacity="0"/>
</linearGradient>
<linearGradient id="paint17_linear_214_37" x1="102.455" y1="135.455" x2="50.652" y2="84.6578" gradientUnits="userSpaceOnUse">
<stop stop-color="white" stop-opacity="0.9"/>
<stop offset="1" stop-color="white" stop-opacity="0"/>
</linearGradient>
<linearGradient id="paint18_linear_214_37" x1="102.455" y1="135.455" x2="50.652" y2="84.6578" gradientUnits="userSpaceOnUse">
<stop stop-color="white" stop-opacity="0.9"/>
<stop offset="1" stop-color="white" stop-opacity="0"/>
</linearGradient>
<linearGradient id="paint19_linear_214_37" x1="102.455" y1="135.455" x2="50.652" y2="84.6578" gradientUnits="userSpaceOnUse">
<stop stop-color="white" stop-opacity="0.9"/>
<stop offset="1" stop-color="white" stop-opacity="0"/>
</linearGradient>
<linearGradient id="paint20_linear_214_37" x1="102.455" y1="135.455" x2="50.652" y2="84.6578" gradientUnits="userSpaceOnUse">
<stop stop-color="white" stop-opacity="0.9"/>
<stop offset="1" stop-color="white" stop-opacity="0"/>
</linearGradient>
<linearGradient id="paint21_linear_214_37" x1="102.455" y1="135.455" x2="50.652" y2="84.6578" gradientUnits="userSpaceOnUse">
<stop stop-color="white" stop-opacity="0.9"/>
<stop offset="1" stop-color="white" stop-opacity="0"/>
</linearGradient>
<linearGradient id="paint22_linear_214_37" x1="102.455" y1="135.455" x2="50.652" y2="84.6578" gradientUnits="userSpaceOnUse">
<stop stop-color="white" stop-opacity="0.9"/>
<stop offset="1" stop-color="white" stop-opacity="0"/>
</linearGradient>
<linearGradient id="paint23_linear_214_37" x1="102.455" y1="135.455" x2="50.652" y2="84.6578" gradientUnits="userSpaceOnUse">
<stop stop-color="white" stop-opacity="0.9"/>
<stop offset="1" stop-color="white" stop-opacity="0"/>
</linearGradient>
<linearGradient id="paint24_linear_214_37" x1="102.455" y1="135.455" x2="50.652" y2="84.6578" gradientUnits="userSpaceOnUse">
<stop stop-color="white" stop-opacity="0.9"/>
<stop offset="1" stop-color="white" stop-opacity="0"/>
</linearGradient>
<linearGradient id="paint25_linear_214_37" x1="102.455" y1="135.455" x2="50.652" y2="84.6578" gradientUnits="userSpaceOnUse">
<stop stop-color="white" stop-opacity="0.9"/>
<stop offset="1" stop-color="white" stop-opacity="0"/>
</linearGradient>
<linearGradient id="paint26_linear_214_37" x1="102.455" y1="135.455" x2="50.652" y2="84.6578" gradientUnits="userSpaceOnUse">
<stop stop-color="white" stop-opacity="0.9"/>
<stop offset="1" stop-color="white" stop-opacity="0"/>
</linearGradient>
<linearGradient id="paint27_linear_214_37" x1="102.455" y1="135.455" x2="50.652" y2="84.6578" gradientUnits="userSpaceOnUse">
<stop stop-color="white" stop-opacity="0.9"/>
<stop offset="1" stop-color="white" stop-opacity="0"/>
</linearGradient>
<linearGradient id="paint28_linear_214_37" x1="102.455" y1="135.455" x2="50.652" y2="84.6578" gradientUnits="userSpaceOnUse">
<stop stop-color="white" stop-opacity="0.9"/>
<stop offset="1" stop-color="white" stop-opacity="0"/>
</linearGradient>
<linearGradient id="paint29_linear_214_37" x1="102.455" y1="135.455" x2="50.652" y2="84.6578" gradientUnits="userSpaceOnUse">
<stop stop-color="white" stop-opacity="0.9"/>
<stop offset="1" stop-color="white" stop-opacity="0"/>
</linearGradient>
</defs>
</svg>
