<svg width="122" height="162" viewBox="0 0 122 162" fill="none" xmlns="http://www.w3.org/2000/svg">
<path fill-rule="evenodd" clip-rule="evenodd" d="M61.25 0L122 109.742H107.536L122 135.871H107.536L122 162H0.5L14.9643 135.871H0.5L14.9643 109.742H0.5L61.25 0ZM17.8575 109.742L4.79444 133.34H16.3655L29.4286 109.742H17.8575ZM30.8298 107.211H19.2587L61.25 31.3555L103.241 107.211H91.6702L61.25 52.2581L30.8298 107.211ZM32.3218 109.742L19.2587 133.34H103.241L90.1782 109.742H32.3218ZM88.777 107.211H33.723L61.25 57.4846L88.777 107.211ZM93.0714 109.742L106.134 133.34H117.706L104.642 109.742H93.0714ZM106.134 107.211L61.25 26.1291L16.3655 107.211H4.79444L61.25 5.22644L117.706 107.211H106.134ZM4.79444 159.469L17.8575 135.871H104.642L117.706 159.469H4.79444Z" fill="url(#paint0_linear_4_214)"/>
<defs>
<linearGradient id="paint0_linear_4_214" x1="61.25" y1="0" x2="60.5722" y2="205.113" gradientUnits="userSpaceOnUse">
<stop stop-color="white" stop-opacity="0.9"/>
<stop offset="1" stop-color="white" stop-opacity="0"/>
</linearGradient>
</defs>
</svg>
