<svg width="94" height="94" viewBox="0 0 94 94" fill="none" xmlns="http://www.w3.org/2000/svg">
<path d="M64.5 47C64.5 59.9336 62.4914 71.6202 59.261 80.0552C57.6451 84.2744 55.7333 87.6544 53.6358 89.9709C51.5383 92.2874 49.2951 93.5 47 93.5C44.7049 93.5 42.4617 92.2874 40.3642 89.9709C38.2667 87.6544 36.3549 84.2744 34.739 80.0552C31.5086 71.6202 29.5 59.9336 29.5 47C29.5 34.0664 31.5086 22.3798 34.739 13.9448C36.3549 9.72562 38.2667 6.34559 40.3642 4.02909C42.4617 1.71262 44.7049 0.5 47 0.5C49.2951 0.5 51.5383 1.71262 53.6358 4.02909C55.7333 6.34559 57.6451 9.72562 59.261 13.9448C62.4914 22.3798 64.5 34.0664 64.5 47Z" stroke="url(#paint0_linear_48_22)"/>
<path d="M47 29.5C59.9336 29.5 71.6202 31.5086 80.0552 34.739C84.2744 36.3549 87.6544 38.2667 89.9709 40.3642C92.2874 42.4617 93.5 44.7049 93.5 47C93.5 49.2951 92.2874 51.5383 89.9709 53.6358C87.6544 55.7333 84.2744 57.6451 80.0552 59.261C71.6202 62.4914 59.9336 64.5 47 64.5C34.0664 64.5 22.3798 62.4914 13.9448 59.261C9.72562 57.6451 6.34559 55.7333 4.02909 53.6358C1.71262 51.5383 0.5 49.2951 0.5 47C0.5 44.7049 1.71262 42.4617 4.02909 40.3642C6.34559 38.2667 9.72562 36.3549 13.9448 34.739C22.3798 31.5086 34.0664 29.5 47 29.5Z" stroke="url(#paint1_linear_48_22)"/>
<path d="M59.2835 34.7165C68.5579 43.991 75.5283 53.782 79.3091 62.0998C81.2003 66.2604 82.2819 70.0273 82.4703 73.1616C82.6587 76.2967 81.9525 78.7378 80.3452 80.3452C78.7378 81.9525 76.2967 82.6587 73.1616 82.4703C70.0273 82.2819 66.2604 81.2003 62.0998 79.3091C53.782 75.5283 43.991 68.5579 34.7165 59.2835C25.4421 50.009 18.4717 40.218 14.6909 31.9002C12.7997 27.7396 11.7181 23.9727 11.5297 20.8384C11.3413 17.7033 12.0474 15.2622 13.6548 13.6548C15.2622 12.0474 17.7033 11.3413 20.8384 11.5297C23.9727 11.7181 27.7396 12.7997 31.9002 14.6909C40.218 18.4717 50.009 25.4421 59.2835 34.7165Z" stroke="url(#paint2_linear_48_22)"/>
<path d="M13.6548 80.3452C12.0474 78.7378 11.3413 76.2967 11.5297 73.1616C11.7181 70.0273 12.7997 66.2604 14.6909 62.0998C18.4717 53.782 25.4421 43.991 34.7165 34.7165C43.991 25.4421 53.782 18.4717 62.0998 14.6909C66.2604 12.7997 70.0273 11.7181 73.1616 11.5297C76.2967 11.3413 78.7378 12.0474 80.3452 13.6548C81.9525 15.2622 82.6587 17.7033 82.4703 20.8384C82.2819 23.9727 81.2003 27.7396 79.3091 31.9002C75.5283 40.218 68.5579 50.009 59.2835 59.2835C50.009 68.5579 40.218 75.5283 31.9002 79.3091C27.7396 81.2003 23.9727 82.2819 20.8384 82.4703C17.7033 82.6587 15.2622 81.9525 13.6548 80.3452Z" stroke="url(#paint3_linear_48_22)"/>
<defs>
<linearGradient id="paint0_linear_48_22" x1="47" y1="0" x2="47" y2="94" gradientUnits="userSpaceOnUse">
<stop stop-color="white"/>
<stop offset="1" stop-color="white" stop-opacity="0"/>
</linearGradient>
<linearGradient id="paint1_linear_48_22" x1="0" y1="47" x2="94" y2="47" gradientUnits="userSpaceOnUse">
<stop stop-color="white"/>
<stop offset="1" stop-color="white" stop-opacity="0"/>
</linearGradient>
<linearGradient id="paint2_linear_48_22" x1="13.3013" y1="13.3013" x2="80.6987" y2="80.6987" gradientUnits="userSpaceOnUse">
<stop stop-color="white"/>
<stop offset="1" stop-color="white" stop-opacity="0"/>
</linearGradient>
<linearGradient id="paint3_linear_48_22" x1="80.6988" y1="13.3013" x2="13.3014" y2="80.6987" gradientUnits="userSpaceOnUse">
<stop stop-color="white"/>
<stop offset="1" stop-color="white" stop-opacity="0"/>
</linearGradient>
</defs>
</svg>
